HIERARCHY
ROOT joint_Root
{
	OFFSET 0.0 0.0 0.0
	CHANNELS 6 Xposition Yposition Zposition Zrotation Xrotation Yrotation 
	JOINT Hips
	{
		OFFSET 4.5925 91.4895 -427.239
		CHANNELS 6 Xposition Yposition Zposition Zrotation Xrotation Yrotation 
		JOINT Spine
		{
			OFFSET 15.7357 0.0 0.0
			CHANNELS 6 Xposition Yposition Zposition Zrotation Xrotation Yrotation 
			JOINT Chest
			{
				OFFSET 8.98455 -0.406207 0.0
				CHANNELS 6 Xposition Yposition Zposition Zrotation Xrotation Yrotation 
				JOINT Neck
				{
					OFFSET 16.3773 0.0 0.0
					CHANNELS 6 Xposition Yposition Zposition Zrotation Xrotation Yrotation 
					JOINT Head
					{
						OFFSET 6.45672 0.0 0.0
						CHANNELS 6 Xposition Yposition Zposition Zrotation Xrotation Yrotation 
						End Site
						{
							OFFSET 0.0 0.0 0.0
						}
					}
				}
				JOINT Shoulder_L
				{
					OFFSET 12.9942 -0.242716 4.98039
					CHANNELS 6 Xposition Yposition Zposition Zrotation Xrotation Yrotation 
					JOINT UpperArm_L
					{
						OFFSET 5.34809 0.0 0.0
						CHANNELS 6 Xposition Yposition Zposition Zrotation Xrotation Yrotation 
						JOINT LowerArm_L
						{
							OFFSET 24.3286 1.87007e-05 0.0
							CHANNELS 6 Xposition Yposition Zposition Zrotation Xrotation Yrotation 
							JOINT Hand_L
							{
								OFFSET 22.2916 0.0 0.0
								CHANNELS 6 Xposition Yposition Zposition Zrotation Xrotation Yrotation 
								End Site
								{
									OFFSET 0.0 0.0 0.0
								}
							}
						}
					}
				}
				JOINT Shoulder_R
				{
					OFFSET 12.9945 -0.242716 -4.98039
					CHANNELS 6 Xposition Yposition Zposition Zrotation Xrotation Yrotation 
					JOINT UpperArm_R
					{
						OFFSET -5.34813 0.0 0.0
						CHANNELS 6 Xposition Yposition Zposition Zrotation Xrotation Yrotation 
						JOINT LowerArm_R
						{
							OFFSET -24.3289 0.000322201 0.0
							CHANNELS 6 Xposition Yposition Zposition Zrotation Xrotation Yrotation 
							JOINT Hand_R
							{
								OFFSET -22.2915 -0.000108084 0.0
								CHANNELS 6 Xposition Yposition Zposition Zrotation Xrotation Yrotation 
								End Site
								{
									OFFSET 0.0 0.0 0.0
								}
							}
						}
					}
				}
			}
		}
		JOINT UpperLeg_L
		{
			OFFSET -2.19248 -6.46944 0.0
			CHANNELS 6 Xposition Yposition Zposition Zrotation Xrotation Yrotation 
			JOINT LowerLeg_L
			{
				OFFSET 39.0811 0.0 -1.23785e-05
				CHANNELS 6 Xposition Yposition Zposition Zrotation Xrotation Yrotation 
				JOINT Foot_L
				{
					OFFSET 40.9854 0.0 -1.26872e-05
					CHANNELS 6 Xposition Yposition Zposition Zrotation Xrotation Yrotation 
					JOINT Toes_L
					{
						OFFSET 11.7543 0.0 0.0
						CHANNELS 6 Xposition Yposition Zposition Zrotation Xrotation Yrotation 
						End Site
						{
							OFFSET 0.0 0.0 0.0
						}
					}
				}
			}
		}
		JOINT UpperLeg_R
		{
			OFFSET -2.19251 6.46944 0.0
			CHANNELS 6 Xposition Yposition Zposition Zrotation Xrotation Yrotation 
			JOINT LowerLeg_R
			{
				OFFSET -39.0811 -0.00228153 -0.0401928
				CHANNELS 6 Xposition Yposition Zposition Zrotation Xrotation Yrotation 
				JOINT Foot_R
				{
					OFFSET -40.9854 0.0 0.0
					CHANNELS 6 Xposition Yposition Zposition Zrotation Xrotation Yrotation 
					JOINT Toes_R
					{
						OFFSET -11.7543 0.0 0.0
						CHANNELS 6 Xposition Yposition Zposition Zrotation Xrotation Yrotation 
						End Site
						{
							OFFSET 0.0 0.0 0.0
						}
					}
				}
			}
		}
	}
}
MOTION
Frames:	4
Frame Time:	0.0333333
0.000000 0.000000 0.000000 0.000000 0.000000 -0.000000 0.441345 92.400800 -0.725863 87.914900 -2.310590 2.728990 15.735700 0.000005 -0.000001 80.902800 87.171200 -80.506000 8.984550 -0.406207 -0.000000 -2.176370 -0.928683 0.775846 16.377300 -0.000001 -0.000001 2.547310 -2.204900 2.262690 6.456720 -0.000001 -0.000000 -3.080880 -0.876114 2.545180 12.994200 -0.242716 4.980390 -82.861800 -12.509200 -59.963800 5.348090 -0.000007 -0.000001 -80.372000 -64.276600 -127.637000 24.328600 0.000019 0.000005 9.221730 9.922190 -43.295700 22.291600 -0.000001 0.000005 19.569300 5.269860 0.901896 12.994500 -0.242716 -4.980390 95.452800 -12.526500 -66.244700 -5.348130 -0.000001 -0.000004 -62.734300 -68.292000 -109.923000 -24.328900 0.000322 -0.000009 -4.598910 -5.287620 -41.109500 -22.291500 -0.000108 -0.000004 23.549600 5.540910 -8.284170 -2.192480 -6.469440 -0.000000 -175.387000 -12.199800 -4.391020 39.081100 -0.000007 -0.000012 -0.111395 0.263837 22.890100 40.985400 -0.000006 -0.000013 0.732372 6.314060 -65.814300 11.754300 -0.000000 0.000003 -0.000130 -0.001284 -16.626500 -2.192510 6.469440 -0.000001 177.512000 22.863000 177.345000 -39.081100 -0.002282 -0.040193 0.013081 -0.026087 20.513600 -40.985400 0.000008 0.000006 5.494140 15.757800 -65.358200 -11.754300 -0.000006 -0.000006 -0.001707 -0.024982 -17.589000
0.000000 0.000000 0.000000 0.000000 0.000000 -0.000000 0.462147 92.411800 -0.836953 87.968100 -2.235640 2.800220 15.735700 0.000005 -0.000001 80.905100 87.129600 -80.533800 8.984550 -0.406207 -0.000000 -2.094460 -0.939132 0.725377 16.377300 -0.000001 -0.000001 2.647020 -2.194370 2.229610 6.456720 -0.000001 -0.000000 -3.076680 -0.870215 2.538730 12.994200 -0.242716 4.980390 -82.880200 -12.444800 -59.902600 5.348090 -0.000007 -0.000001 -80.441500 -64.274300 -127.840000 24.328600 0.000019 0.000005 9.245200 9.904840 -43.419300 22.291600 -0.000001 0.000005 19.506100 5.271490 0.857874 12.994500 -0.242716 -4.980390 95.443300 -12.502000 -66.240900 -5.348130 -0.000001 -0.000004 -63.211700 -68.275200 -110.565000 -24.328900 0.000322 -0.000009 -4.577340 -5.266310 -41.089800 -22.291500 -0.000108 -0.000004 23.451100 5.538870 -8.191490 -2.192480 -6.469440 -0.000000 -175.438000 -12.255500 -4.382690 39.081100 -0.000007 -0.000012 -0.108041 0.256606 22.832900 40.985400 -0.000006 -0.000013 0.781693 6.494040 -65.705500 11.754300 -0.000000 0.000003 -0.000128 -0.001267 -16.625900 -2.192510 6.469440 -0.000001 177.440000 22.949300 177.354000 -39.081100 -0.002282 -0.040193 0.013232 -0.026506 20.501500 -40.985400 0.000008 0.000006 5.493660 15.786800 -65.304100 -11.754300 -0.000006 -0.000006 -0.001868 -0.027050 -17.673000
0.000000 0.000000 0.000000 0.000000 0.000000 -0.000000 0.478202 92.421100 -0.949635 88.028000 -2.166840 2.823250 15.735700 0.000005 -0.000001 80.817500 87.110400 -80.466000 8.984550 -0.406207 -0.000000 -2.058040 -0.952120 0.685893 16.377300 -0.000001 -0.000001 2.787790 -2.208960 2.205030 6.456720 -0.000001 -0.000000 -3.035080 -0.862775 2.427120 12.994200 -0.242716 4.980390 -82.917700 -12.380400 -59.908100 5.348090 -0.000007 -0.000001 -80.154700 -64.438400 -127.586000 24.328600 0.000019 0.000005 9.117170 9.688680 -43.638600 22.291600 -0.000001 0.000005 19.266700 5.271820 0.848884 12.994500 -0.242716 -4.980390 95.452800 -12.507000 -66.212400 -5.348130 -0.000001 -0.000004 -63.314000 -68.288300 -110.855000 -24.328900 0.000322 -0.000009 -4.595160 -5.302430 -41.007100 -22.291500 -0.000108 -0.000004 23.467100 5.539490 -8.219580 -2.192480 -6.469440 -0.000000 -175.523000 -12.252300 -4.432970 39.081100 -0.000007 -0.000012 -0.105828 0.251941 22.784900 40.985400 -0.000006 -0.000013 0.808429 6.536560 -65.596000 11.754300 -0.000000 0.000003 -0.000131 -0.001299 -16.627100 -2.192510 6.469440 -0.000001 177.396000 22.931400 177.311000 -39.081100 -0.002282 -0.040193 0.013429 -0.027068 20.478100 -40.985400 0.000008 0.000006 5.458820 15.694200 -65.252400 -11.754300 -0.000006 -0.000006 -0.001996 -0.028661 -17.738500
0.000000 0.000000 0.000000 0.000000 0.000000 -0.000000 0.484078 92.433800 -1.046590 88.079700 -2.083820 2.897370 15.735700 0.000005 -0.000001 80.766700 87.069400 -80.442900 8.984550 -0.406207 -0.000000 -1.978100 -0.967737 0.630703 16.377300 -0.000001 -0.000001 2.860290 -2.222950 2.209620 6.456720 -0.000001 -0.000000 -2.929380 -0.848244 2.366410 12.994200 -0.242716 4.980390 -82.945400 -12.291100 -59.829400 5.348090 -0.000007 -0.000001 -79.673700 -64.495400 -127.046000 24.328600 0.000019 0.000005 9.073850 9.521050 -43.994900 22.291600 -0.000001 0.000005 19.075800 5.274290 0.781907 12.994500 -0.242716 -4.980390 95.415300 -12.450400 -66.264700 -5.348130 -0.000001 -0.000004 -62.593000 -68.496700 -110.261000 -24.328900 0.000322 -0.000009 -4.680670 -5.406380 -40.983400 -22.291500 -0.000108 -0.000004 23.447800 5.541100 -8.293070 -2.192480 -6.469440 -0.000000 -175.583000 -12.230800 -4.400040 39.081100 -0.000007 -0.000012 -0.105272 0.251597 22.705300 40.985400 -0.000006 -0.000013 0.822931 6.560300 -65.484200 11.754300 -0.000000 0.000003 -0.000132 -0.001302 -16.627200 -2.192510 6.469440 -0.000001 177.343000 22.900600 177.332000 -39.081100 -0.002282 -0.040193 0.013290 -0.026722 20.459900 -40.985400 0.000008 0.000006 5.428430 15.622900 -65.178300 -11.754300 -0.000006 -0.000006 -0.001939 -0.027945 -17.709400
